<mxfile host="app.diagrams.net" modified="2023-05-31T19:11:53.094Z" agent="Mozilla/5.0 (Windows NT 10.0; Win64; x64) AppleWebKit/537.36 (KHTML, like Gecko) Chrome/113.0.0.0 Safari/537.36" etag="XhW_HiVDGwef82FlhBwv" version="21.3.6" type="device">
  <diagram id="C5RBs43oDa-KdzZeNtuy" name="Page-1">
    <mxGraphModel dx="1260" dy="691" grid="1" gridSize="10" guides="1" tooltips="1" connect="1" arrows="1" fold="1" page="1" pageScale="1" pageWidth="827" pageHeight="1169" math="0" shadow="0">
      <root>
        <mxCell id="WIyWlLk6GJQsqaUBKTNV-0" />
        <mxCell id="WIyWlLk6GJQsqaUBKTNV-1" parent="WIyWlLk6GJQsqaUBKTNV-0" />
        <mxCell id="wTe5RUvgM1mQeI-E49Fl-53" value="" style="edgeStyle=orthogonalEdgeStyle;rounded=0;orthogonalLoop=1;jettySize=auto;html=1;" edge="1" parent="WIyWlLk6GJQsqaUBKTNV-1" source="WIyWlLk6GJQsqaUBKTNV-3" target="wTe5RUvgM1mQeI-E49Fl-52">
          <mxGeometry relative="1" as="geometry" />
        </mxCell>
        <mxCell id="WIyWlLk6GJQsqaUBKTNV-3" value="Solicitar ingreso de correo" style="rounded=1;whiteSpace=wrap;html=1;fontSize=12;glass=0;strokeWidth=1;shadow=0;" parent="WIyWlLk6GJQsqaUBKTNV-1" vertex="1">
          <mxGeometry x="240" y="80" width="120" height="40" as="geometry" />
        </mxCell>
        <mxCell id="wTe5RUvgM1mQeI-E49Fl-0" style="edgeStyle=orthogonalEdgeStyle;rounded=0;orthogonalLoop=1;jettySize=auto;html=1;entryX=0.5;entryY=0;entryDx=0;entryDy=0;" edge="1" parent="WIyWlLk6GJQsqaUBKTNV-1" source="WIyWlLk6GJQsqaUBKTNV-6" target="WIyWlLk6GJQsqaUBKTNV-12">
          <mxGeometry relative="1" as="geometry" />
        </mxCell>
        <mxCell id="wTe5RUvgM1mQeI-E49Fl-6" value="SI" style="edgeLabel;html=1;align=center;verticalAlign=middle;resizable=0;points=[];" vertex="1" connectable="0" parent="wTe5RUvgM1mQeI-E49Fl-0">
          <mxGeometry x="-0.2931" relative="1" as="geometry">
            <mxPoint as="offset" />
          </mxGeometry>
        </mxCell>
        <mxCell id="wTe5RUvgM1mQeI-E49Fl-4" style="edgeStyle=orthogonalEdgeStyle;rounded=0;orthogonalLoop=1;jettySize=auto;html=1;entryX=0.324;entryY=1.033;entryDx=0;entryDy=0;entryPerimeter=0;" edge="1" parent="WIyWlLk6GJQsqaUBKTNV-1" source="WIyWlLk6GJQsqaUBKTNV-6" target="wTe5RUvgM1mQeI-E49Fl-58">
          <mxGeometry relative="1" as="geometry">
            <mxPoint x="342" y="335" as="targetPoint" />
            <Array as="points" />
          </mxGeometry>
        </mxCell>
        <mxCell id="wTe5RUvgM1mQeI-E49Fl-5" value="NO" style="edgeLabel;html=1;align=center;verticalAlign=middle;resizable=0;points=[];" vertex="1" connectable="0" parent="wTe5RUvgM1mQeI-E49Fl-4">
          <mxGeometry x="-0.2549" y="2" relative="1" as="geometry">
            <mxPoint as="offset" />
          </mxGeometry>
        </mxCell>
        <mxCell id="WIyWlLk6GJQsqaUBKTNV-6" value="correo termina en: cumbre.edu.bo" style="rhombus;whiteSpace=wrap;html=1;shadow=0;fontFamily=Helvetica;fontSize=12;align=center;strokeWidth=1;spacing=6;spacingTop=-4;" parent="WIyWlLk6GJQsqaUBKTNV-1" vertex="1">
          <mxGeometry x="37.5" y="385" width="170" height="80" as="geometry" />
        </mxCell>
        <mxCell id="wTe5RUvgM1mQeI-E49Fl-2" style="edgeStyle=orthogonalEdgeStyle;rounded=0;orthogonalLoop=1;jettySize=auto;html=1;entryX=0;entryY=0.5;entryDx=0;entryDy=0;" edge="1" parent="WIyWlLk6GJQsqaUBKTNV-1" source="WIyWlLk6GJQsqaUBKTNV-10" target="wTe5RUvgM1mQeI-E49Fl-1">
          <mxGeometry relative="1" as="geometry" />
        </mxCell>
        <mxCell id="wTe5RUvgM1mQeI-E49Fl-3" value="NO" style="edgeLabel;html=1;align=center;verticalAlign=middle;resizable=0;points=[];" vertex="1" connectable="0" parent="wTe5RUvgM1mQeI-E49Fl-2">
          <mxGeometry x="-0.28" y="2" relative="1" as="geometry">
            <mxPoint as="offset" />
          </mxGeometry>
        </mxCell>
        <mxCell id="wTe5RUvgM1mQeI-E49Fl-14" value="" style="edgeStyle=orthogonalEdgeStyle;rounded=0;orthogonalLoop=1;jettySize=auto;html=1;" edge="1" parent="WIyWlLk6GJQsqaUBKTNV-1" source="WIyWlLk6GJQsqaUBKTNV-10" target="wTe5RUvgM1mQeI-E49Fl-13">
          <mxGeometry relative="1" as="geometry" />
        </mxCell>
        <mxCell id="wTe5RUvgM1mQeI-E49Fl-15" value="SI" style="edgeLabel;html=1;align=center;verticalAlign=middle;resizable=0;points=[];" vertex="1" connectable="0" parent="wTe5RUvgM1mQeI-E49Fl-14">
          <mxGeometry x="-0.2762" y="-1" relative="1" as="geometry">
            <mxPoint as="offset" />
          </mxGeometry>
        </mxCell>
        <mxCell id="WIyWlLk6GJQsqaUBKTNV-10" value="logitud de la contraseña &amp;gt; 8" style="rhombus;whiteSpace=wrap;html=1;shadow=0;fontFamily=Helvetica;fontSize=12;align=center;strokeWidth=1;spacing=6;spacingTop=-4;" parent="WIyWlLk6GJQsqaUBKTNV-1" vertex="1">
          <mxGeometry x="57.5" y="625" width="130" height="100" as="geometry" />
        </mxCell>
        <mxCell id="wTe5RUvgM1mQeI-E49Fl-7" style="edgeStyle=orthogonalEdgeStyle;rounded=0;orthogonalLoop=1;jettySize=auto;html=1;entryX=0.5;entryY=0;entryDx=0;entryDy=0;" edge="1" parent="WIyWlLk6GJQsqaUBKTNV-1" source="WIyWlLk6GJQsqaUBKTNV-12" target="WIyWlLk6GJQsqaUBKTNV-10">
          <mxGeometry relative="1" as="geometry" />
        </mxCell>
        <mxCell id="WIyWlLk6GJQsqaUBKTNV-12" value="Solicitar ingreso de contraseña" style="rounded=1;whiteSpace=wrap;html=1;fontSize=12;glass=0;strokeWidth=1;shadow=0;" parent="WIyWlLk6GJQsqaUBKTNV-1" vertex="1">
          <mxGeometry x="62.5" y="535" width="120" height="40" as="geometry" />
        </mxCell>
        <mxCell id="wTe5RUvgM1mQeI-E49Fl-1" value="Mostrar una alerta con el siguiente mensaje: &quot;Contraseña débil. Vuelva a intentarlo&quot;" style="rounded=1;whiteSpace=wrap;html=1;fontSize=12;glass=0;strokeWidth=1;shadow=0;" vertex="1" parent="WIyWlLk6GJQsqaUBKTNV-1">
          <mxGeometry x="302.5" y="622.5" width="120" height="105" as="geometry" />
        </mxCell>
        <mxCell id="wTe5RUvgM1mQeI-E49Fl-16" style="edgeStyle=orthogonalEdgeStyle;rounded=0;orthogonalLoop=1;jettySize=auto;html=1;entryX=0.5;entryY=1;entryDx=0;entryDy=0;" edge="1" parent="WIyWlLk6GJQsqaUBKTNV-1" source="wTe5RUvgM1mQeI-E49Fl-13" target="wTe5RUvgM1mQeI-E49Fl-1">
          <mxGeometry relative="1" as="geometry" />
        </mxCell>
        <mxCell id="wTe5RUvgM1mQeI-E49Fl-22" value="NO" style="edgeLabel;html=1;align=center;verticalAlign=middle;resizable=0;points=[];" vertex="1" connectable="0" parent="wTe5RUvgM1mQeI-E49Fl-16">
          <mxGeometry x="-0.116" y="-4" relative="1" as="geometry">
            <mxPoint as="offset" />
          </mxGeometry>
        </mxCell>
        <mxCell id="wTe5RUvgM1mQeI-E49Fl-21" style="edgeStyle=orthogonalEdgeStyle;rounded=0;orthogonalLoop=1;jettySize=auto;html=1;entryX=0.5;entryY=0;entryDx=0;entryDy=0;" edge="1" parent="WIyWlLk6GJQsqaUBKTNV-1" source="wTe5RUvgM1mQeI-E49Fl-13" target="wTe5RUvgM1mQeI-E49Fl-20">
          <mxGeometry relative="1" as="geometry">
            <Array as="points">
              <mxPoint x="122.5" y="905" />
              <mxPoint x="122.5" y="905" />
            </Array>
          </mxGeometry>
        </mxCell>
        <mxCell id="wTe5RUvgM1mQeI-E49Fl-23" value="SI" style="edgeLabel;html=1;align=center;verticalAlign=middle;resizable=0;points=[];" vertex="1" connectable="0" parent="wTe5RUvgM1mQeI-E49Fl-21">
          <mxGeometry x="-0.2996" relative="1" as="geometry">
            <mxPoint as="offset" />
          </mxGeometry>
        </mxCell>
        <mxCell id="wTe5RUvgM1mQeI-E49Fl-13" value="La contraseña tiene que empezar con el caracter especial de &quot; $* &quot;" style="rhombus;whiteSpace=wrap;html=1;shadow=0;fontFamily=Helvetica;fontSize=12;align=center;strokeWidth=1;spacing=6;spacingTop=-4;" vertex="1" parent="WIyWlLk6GJQsqaUBKTNV-1">
          <mxGeometry x="30" y="775" width="185" height="110" as="geometry" />
        </mxCell>
        <mxCell id="wTe5RUvgM1mQeI-E49Fl-65" style="edgeStyle=orthogonalEdgeStyle;rounded=0;orthogonalLoop=1;jettySize=auto;html=1;entryX=0;entryY=0.5;entryDx=0;entryDy=0;exitX=0.5;exitY=1;exitDx=0;exitDy=0;" edge="1" parent="WIyWlLk6GJQsqaUBKTNV-1" source="wTe5RUvgM1mQeI-E49Fl-17" target="wTe5RUvgM1mQeI-E49Fl-60">
          <mxGeometry relative="1" as="geometry" />
        </mxCell>
        <mxCell id="wTe5RUvgM1mQeI-E49Fl-17" value="Genero la fecha actual&amp;nbsp;" style="rounded=1;whiteSpace=wrap;html=1;" vertex="1" parent="WIyWlLk6GJQsqaUBKTNV-1">
          <mxGeometry x="462.5" y="137.5" width="120" height="60" as="geometry" />
        </mxCell>
        <mxCell id="wTe5RUvgM1mQeI-E49Fl-27" value="" style="edgeStyle=orthogonalEdgeStyle;rounded=0;orthogonalLoop=1;jettySize=auto;html=1;" edge="1" parent="WIyWlLk6GJQsqaUBKTNV-1" source="wTe5RUvgM1mQeI-E49Fl-20" target="wTe5RUvgM1mQeI-E49Fl-26">
          <mxGeometry relative="1" as="geometry" />
        </mxCell>
        <mxCell id="wTe5RUvgM1mQeI-E49Fl-20" value="Preguntar al usuario si desea ingresar un post" style="rounded=1;whiteSpace=wrap;html=1;" vertex="1" parent="WIyWlLk6GJQsqaUBKTNV-1">
          <mxGeometry x="52.5" y="945" width="140" height="60" as="geometry" />
        </mxCell>
        <mxCell id="wTe5RUvgM1mQeI-E49Fl-29" value="" style="edgeStyle=orthogonalEdgeStyle;rounded=0;orthogonalLoop=1;jettySize=auto;html=1;" edge="1" parent="WIyWlLk6GJQsqaUBKTNV-1" source="wTe5RUvgM1mQeI-E49Fl-26" target="wTe5RUvgM1mQeI-E49Fl-28">
          <mxGeometry relative="1" as="geometry" />
        </mxCell>
        <mxCell id="wTe5RUvgM1mQeI-E49Fl-32" value="SI" style="edgeLabel;html=1;align=center;verticalAlign=middle;resizable=0;points=[];" vertex="1" connectable="0" parent="wTe5RUvgM1mQeI-E49Fl-29">
          <mxGeometry x="-0.237" relative="1" as="geometry">
            <mxPoint as="offset" />
          </mxGeometry>
        </mxCell>
        <mxCell id="wTe5RUvgM1mQeI-E49Fl-31" value="" style="edgeStyle=orthogonalEdgeStyle;rounded=0;orthogonalLoop=1;jettySize=auto;html=1;" edge="1" parent="WIyWlLk6GJQsqaUBKTNV-1" source="wTe5RUvgM1mQeI-E49Fl-26" target="wTe5RUvgM1mQeI-E49Fl-30">
          <mxGeometry relative="1" as="geometry" />
        </mxCell>
        <mxCell id="wTe5RUvgM1mQeI-E49Fl-33" value="NO" style="edgeLabel;html=1;align=center;verticalAlign=middle;resizable=0;points=[];" vertex="1" connectable="0" parent="wTe5RUvgM1mQeI-E49Fl-31">
          <mxGeometry x="-0.3172" y="-1" relative="1" as="geometry">
            <mxPoint as="offset" />
          </mxGeometry>
        </mxCell>
        <mxCell id="wTe5RUvgM1mQeI-E49Fl-26" value="aceptar &lt;br&gt;crear" style="rhombus;whiteSpace=wrap;html=1;rounded=1;" vertex="1" parent="WIyWlLk6GJQsqaUBKTNV-1">
          <mxGeometry x="256.5" y="875" width="80" height="80" as="geometry" />
        </mxCell>
        <mxCell id="wTe5RUvgM1mQeI-E49Fl-43" value="" style="edgeStyle=orthogonalEdgeStyle;rounded=0;orthogonalLoop=1;jettySize=auto;html=1;" edge="1" parent="WIyWlLk6GJQsqaUBKTNV-1" source="wTe5RUvgM1mQeI-E49Fl-28" target="wTe5RUvgM1mQeI-E49Fl-42">
          <mxGeometry relative="1" as="geometry" />
        </mxCell>
        <mxCell id="wTe5RUvgM1mQeI-E49Fl-28" value="Solicitar ingresar el primer post" style="whiteSpace=wrap;html=1;rounded=1;" vertex="1" parent="WIyWlLk6GJQsqaUBKTNV-1">
          <mxGeometry x="422.5" y="885" width="120" height="60" as="geometry" />
        </mxCell>
        <mxCell id="wTe5RUvgM1mQeI-E49Fl-68" style="edgeStyle=orthogonalEdgeStyle;rounded=0;orthogonalLoop=1;jettySize=auto;html=1;entryX=0.5;entryY=1;entryDx=0;entryDy=0;exitX=0.5;exitY=1;exitDx=0;exitDy=0;" edge="1" parent="WIyWlLk6GJQsqaUBKTNV-1" source="wTe5RUvgM1mQeI-E49Fl-30" target="wTe5RUvgM1mQeI-E49Fl-67">
          <mxGeometry relative="1" as="geometry" />
        </mxCell>
        <mxCell id="wTe5RUvgM1mQeI-E49Fl-30" value="Mostrar el post &quot;Mi primer post en JS&quot;" style="whiteSpace=wrap;html=1;rounded=1;" vertex="1" parent="WIyWlLk6GJQsqaUBKTNV-1">
          <mxGeometry x="236.5" y="1020" width="120" height="60" as="geometry" />
        </mxCell>
        <mxCell id="wTe5RUvgM1mQeI-E49Fl-37" value="NO" style="edgeStyle=orthogonalEdgeStyle;rounded=0;orthogonalLoop=1;jettySize=auto;html=1;entryX=0;entryY=0.5;entryDx=0;entryDy=0;" edge="1" parent="WIyWlLk6GJQsqaUBKTNV-1" source="wTe5RUvgM1mQeI-E49Fl-35" target="wTe5RUvgM1mQeI-E49Fl-58">
          <mxGeometry relative="1" as="geometry">
            <mxPoint x="352.5" y="372.5" as="targetPoint" />
          </mxGeometry>
        </mxCell>
        <mxCell id="wTe5RUvgM1mQeI-E49Fl-38" value="SI" style="edgeStyle=orthogonalEdgeStyle;rounded=0;orthogonalLoop=1;jettySize=auto;html=1;entryX=0.5;entryY=0;entryDx=0;entryDy=0;" edge="1" parent="WIyWlLk6GJQsqaUBKTNV-1" source="wTe5RUvgM1mQeI-E49Fl-35" target="WIyWlLk6GJQsqaUBKTNV-6">
          <mxGeometry relative="1" as="geometry" />
        </mxCell>
        <mxCell id="wTe5RUvgM1mQeI-E49Fl-35" value="permitir mayúsculas y/o minúsculas" style="rhombus;whiteSpace=wrap;html=1;rounded=1;glass=0;strokeWidth=1;shadow=0;" vertex="1" parent="WIyWlLk6GJQsqaUBKTNV-1">
          <mxGeometry x="47.5" y="245" width="150" height="100" as="geometry" />
        </mxCell>
        <mxCell id="wTe5RUvgM1mQeI-E49Fl-47" style="edgeStyle=orthogonalEdgeStyle;rounded=0;orthogonalLoop=1;jettySize=auto;html=1;entryX=1;entryY=0.5;entryDx=0;entryDy=0;" edge="1" parent="WIyWlLk6GJQsqaUBKTNV-1" source="wTe5RUvgM1mQeI-E49Fl-42" target="wTe5RUvgM1mQeI-E49Fl-30">
          <mxGeometry relative="1" as="geometry" />
        </mxCell>
        <mxCell id="wTe5RUvgM1mQeI-E49Fl-49" value="NO" style="edgeLabel;html=1;align=center;verticalAlign=middle;resizable=0;points=[];" vertex="1" connectable="0" parent="wTe5RUvgM1mQeI-E49Fl-47">
          <mxGeometry x="-0.4083" y="1" relative="1" as="geometry">
            <mxPoint as="offset" />
          </mxGeometry>
        </mxCell>
        <mxCell id="wTe5RUvgM1mQeI-E49Fl-66" style="edgeStyle=orthogonalEdgeStyle;rounded=0;orthogonalLoop=1;jettySize=auto;html=1;entryX=0.635;entryY=1.033;entryDx=0;entryDy=0;entryPerimeter=0;exitX=1;exitY=0.5;exitDx=0;exitDy=0;" edge="1" parent="WIyWlLk6GJQsqaUBKTNV-1" source="wTe5RUvgM1mQeI-E49Fl-42" target="wTe5RUvgM1mQeI-E49Fl-58">
          <mxGeometry relative="1" as="geometry">
            <Array as="points">
              <mxPoint x="600" y="1050" />
              <mxPoint x="600" y="480" />
              <mxPoint x="359" y="480" />
            </Array>
          </mxGeometry>
        </mxCell>
        <mxCell id="wTe5RUvgM1mQeI-E49Fl-42" value="string vacio" style="rhombus;whiteSpace=wrap;html=1;rounded=1;" vertex="1" parent="WIyWlLk6GJQsqaUBKTNV-1">
          <mxGeometry x="442.5" y="1010" width="80" height="80" as="geometry" />
        </mxCell>
        <mxCell id="wTe5RUvgM1mQeI-E49Fl-54" style="edgeStyle=orthogonalEdgeStyle;rounded=0;orthogonalLoop=1;jettySize=auto;html=1;entryX=0.5;entryY=0;entryDx=0;entryDy=0;" edge="1" parent="WIyWlLk6GJQsqaUBKTNV-1" source="wTe5RUvgM1mQeI-E49Fl-52" target="wTe5RUvgM1mQeI-E49Fl-35">
          <mxGeometry relative="1" as="geometry" />
        </mxCell>
        <mxCell id="wTe5RUvgM1mQeI-E49Fl-57" value="SI" style="edgeLabel;html=1;align=center;verticalAlign=middle;resizable=0;points=[];" vertex="1" connectable="0" parent="wTe5RUvgM1mQeI-E49Fl-54">
          <mxGeometry x="-0.2377" y="-1" relative="1" as="geometry">
            <mxPoint as="offset" />
          </mxGeometry>
        </mxCell>
        <mxCell id="wTe5RUvgM1mQeI-E49Fl-55" style="edgeStyle=orthogonalEdgeStyle;rounded=0;orthogonalLoop=1;jettySize=auto;html=1;entryX=0.5;entryY=0;entryDx=0;entryDy=0;" edge="1" parent="WIyWlLk6GJQsqaUBKTNV-1" source="wTe5RUvgM1mQeI-E49Fl-52" target="wTe5RUvgM1mQeI-E49Fl-58">
          <mxGeometry relative="1" as="geometry">
            <mxPoint x="382.5" y="365" as="targetPoint" />
            <Array as="points">
              <mxPoint x="342" y="165" />
              <mxPoint x="342" y="245" />
            </Array>
          </mxGeometry>
        </mxCell>
        <mxCell id="wTe5RUvgM1mQeI-E49Fl-56" value="NO" style="edgeLabel;html=1;align=center;verticalAlign=middle;resizable=0;points=[];" vertex="1" connectable="0" parent="wTe5RUvgM1mQeI-E49Fl-55">
          <mxGeometry x="-0.6993" y="-3" relative="1" as="geometry">
            <mxPoint as="offset" />
          </mxGeometry>
        </mxCell>
        <mxCell id="wTe5RUvgM1mQeI-E49Fl-52" value="Correo no empiece con números ni con espacio" style="rhombus;whiteSpace=wrap;html=1;rounded=1;glass=0;strokeWidth=1;shadow=0;" vertex="1" parent="WIyWlLk6GJQsqaUBKTNV-1">
          <mxGeometry x="47.5" y="125" width="150" height="80" as="geometry" />
        </mxCell>
        <mxCell id="wTe5RUvgM1mQeI-E49Fl-64" style="edgeStyle=orthogonalEdgeStyle;rounded=0;orthogonalLoop=1;jettySize=auto;html=1;entryX=0;entryY=0.5;entryDx=0;entryDy=0;" edge="1" parent="WIyWlLk6GJQsqaUBKTNV-1" source="wTe5RUvgM1mQeI-E49Fl-58" target="wTe5RUvgM1mQeI-E49Fl-17">
          <mxGeometry relative="1" as="geometry" />
        </mxCell>
        <mxCell id="wTe5RUvgM1mQeI-E49Fl-58" value="Generar un numero random entre 0 y 10 y adicionar al mensaje" style="rounded=1;whiteSpace=wrap;html=1;" vertex="1" parent="WIyWlLk6GJQsqaUBKTNV-1">
          <mxGeometry x="276.5" y="245" width="130" height="90" as="geometry" />
        </mxCell>
        <mxCell id="wTe5RUvgM1mQeI-E49Fl-75" style="edgeStyle=orthogonalEdgeStyle;rounded=0;orthogonalLoop=1;jettySize=auto;html=1;entryX=0.5;entryY=0;entryDx=0;entryDy=0;" edge="1" parent="WIyWlLk6GJQsqaUBKTNV-1" source="wTe5RUvgM1mQeI-E49Fl-60" target="wTe5RUvgM1mQeI-E49Fl-74">
          <mxGeometry relative="1" as="geometry" />
        </mxCell>
        <mxCell id="wTe5RUvgM1mQeI-E49Fl-60" value="Mostrar una alerta con el siguiente mensaje y formato: &quot;Correo no válido. Vuelva a intentarlo en &amp;lt;Numero aleatorio&amp;gt; seg.&lt;br&gt;&lt;br&gt;&amp;lt;fecha_actual&amp;gt;&quot;&amp;nbsp;" style="rounded=1;whiteSpace=wrap;html=1;fontSize=12;glass=0;strokeWidth=1;shadow=0;" vertex="1" parent="WIyWlLk6GJQsqaUBKTNV-1">
          <mxGeometry x="620" y="185" width="120" height="210" as="geometry" />
        </mxCell>
        <mxCell id="wTe5RUvgM1mQeI-E49Fl-70" style="edgeStyle=orthogonalEdgeStyle;rounded=0;orthogonalLoop=1;jettySize=auto;html=1;entryX=0.5;entryY=1;entryDx=0;entryDy=0;" edge="1" parent="WIyWlLk6GJQsqaUBKTNV-1" source="wTe5RUvgM1mQeI-E49Fl-67" target="wTe5RUvgM1mQeI-E49Fl-69">
          <mxGeometry relative="1" as="geometry" />
        </mxCell>
        <mxCell id="wTe5RUvgM1mQeI-E49Fl-67" value="Dividir cada palabra en array" style="whiteSpace=wrap;html=1;rounded=1;" vertex="1" parent="WIyWlLk6GJQsqaUBKTNV-1">
          <mxGeometry x="650" y="970" width="120" height="60" as="geometry" />
        </mxCell>
        <mxCell id="wTe5RUvgM1mQeI-E49Fl-76" style="edgeStyle=orthogonalEdgeStyle;rounded=0;orthogonalLoop=1;jettySize=auto;html=1;entryX=0.75;entryY=1;entryDx=0;entryDy=0;" edge="1" parent="WIyWlLk6GJQsqaUBKTNV-1" source="wTe5RUvgM1mQeI-E49Fl-69" target="wTe5RUvgM1mQeI-E49Fl-74">
          <mxGeometry relative="1" as="geometry" />
        </mxCell>
        <mxCell id="wTe5RUvgM1mQeI-E49Fl-69" value="Mostrar en consola de tipo advertencia (warn)" style="whiteSpace=wrap;html=1;rounded=1;" vertex="1" parent="WIyWlLk6GJQsqaUBKTNV-1">
          <mxGeometry x="650" y="860" width="120" height="60" as="geometry" />
        </mxCell>
        <mxCell id="wTe5RUvgM1mQeI-E49Fl-73" style="edgeStyle=orthogonalEdgeStyle;rounded=0;orthogonalLoop=1;jettySize=auto;html=1;entryX=0.5;entryY=0;entryDx=0;entryDy=0;" edge="1" parent="WIyWlLk6GJQsqaUBKTNV-1" source="wTe5RUvgM1mQeI-E49Fl-71" target="WIyWlLk6GJQsqaUBKTNV-3">
          <mxGeometry relative="1" as="geometry" />
        </mxCell>
        <mxCell id="wTe5RUvgM1mQeI-E49Fl-71" value="Inicio" style="rounded=1;whiteSpace=wrap;html=1;fontSize=12;glass=0;strokeWidth=1;shadow=0;" vertex="1" parent="WIyWlLk6GJQsqaUBKTNV-1">
          <mxGeometry x="57.5" y="30" width="120" height="40" as="geometry" />
        </mxCell>
        <mxCell id="wTe5RUvgM1mQeI-E49Fl-74" value="Fin" style="rounded=1;whiteSpace=wrap;html=1;fontSize=12;glass=0;strokeWidth=1;shadow=0;" vertex="1" parent="WIyWlLk6GJQsqaUBKTNV-1">
          <mxGeometry x="620" y="750" width="120" height="40" as="geometry" />
        </mxCell>
      </root>
    </mxGraphModel>
  </diagram>
</mxfile>
